<?xml version="1.0" standalone="no"?>
<!DOCTYPE svg PUBLIC "-//W3C//DTD SVG 20010904//EN"
 "http://www.w3.org/TR/2001/REC-SVG-20010904/DTD/svg10.dtd">
<svg version="1.0" xmlns="http://www.w3.org/2000/svg"
 width="1417.000000pt" height="1417.000000pt" viewBox="0 0 1417.000000 1417.000000"
 preserveAspectRatio="xMidYMid meet">
<metadata>
Created by potrace 1.14, written by Peter Selinger 2001-2017
</metadata>
<g transform="translate(0.000000,1417.000000) scale(0.100000,-0.100000)"
fill="#000000" stroke="none">
<path d="M700 14155 c-359 -78 -612 -332 -684 -685 -14 -67 -16 -742 -15
-6380 1 -5557 2 -6313 16 -6375 77 -362 373 -637 733 -683 36 -4 2895 -7 6355
-6 5748 1 6296 2 6361 17 358 81 629 376 672 732 9 73 7 12589 -2 12658 -41
321 -291 610 -607 701 -31 9 -67 20 -80 24 -13 4 -2875 7 -6359 8 -4914 1
-6347 -1 -6390 -11z"/>
</g>
</svg>
