<?xml version="1.0" standalone="no"?>
<!DOCTYPE svg PUBLIC "-//W3C//DTD SVG 20010904//EN"
 "http://www.w3.org/TR/2001/REC-SVG-20010904/DTD/svg10.dtd">
<svg version="1.0" xmlns="http://www.w3.org/2000/svg"
 width="1060.000000pt" height="1060.000000pt" viewBox="0 0 1060.000000 1060.000000"
 preserveAspectRatio="xMidYMid meet">
<metadata>
Created by potrace 1.14, written by Peter Selinger 2001-2017
</metadata>
<g transform="translate(0.000000,1060.000000) scale(0.100000,-0.100000)"
fill="#000000" stroke="none">
<path d="M0 5302 l0 -5302 5302 0 5303 0 -1773 1773 -1773 1773 23 25 c13 14
35 41 50 60 29 38 55 68 99 116 16 18 29 35 29 37 0 3 34 53 76 112 42 59 86
125 99 148 70 128 85 156 113 211 77 154 132 304 132 360 0 23 -3 27 -10 15
-9 -13 -11 -13 -20 0 -8 13 -10 12 -10 -3 0 -10 -9 -35 -20 -55 -10 -20 -37
-74 -59 -120 -23 -46 -54 -104 -71 -128 -16 -25 -30 -47 -30 -50 0 -3 -10 -20
-23 -37 -12 -18 -27 -39 -32 -48 -41 -67 -183 -239 -197 -239 -5 0 -27 -12
-50 -26 l-41 -26 -76 33 c-42 18 -143 66 -226 108 -159 80 -157 79 -222 70
-29 -4 -40 -2 -37 5 3 6 -2 2 -11 -9 -14 -17 -17 -18 -25 -5 -5 8 -10 10 -10
5 0 -9 -88 -55 -106 -55 -14 0 29 27 56 35 25 8 63 33 108 70 26 22 80 129 92
185 5 19 16 60 25 90 8 30 20 75 25 100 5 25 17 74 25 110 9 36 20 88 25 115
5 28 16 84 24 126 22 113 37 245 30 273 -8 32 -42 23 -55 -14 -15 -41 -61 -71
-103 -66 -24 4 -36 1 -40 -10 -3 -9 -16 -15 -28 -14 -63 5 -108 -1 -108 -14 0
-12 -28 -13 -167 -9 -93 3 -183 9 -202 14 -20 5 -39 5 -45 0 -6 -5 -32 -4 -59
2 -39 10 -47 15 -43 30 4 15 0 17 -30 11 -19 -3 -42 -3 -51 1 -10 4 -76 9
-148 12 -71 2 -131 8 -133 14 -2 5 -59 9 -128 9 -68 0 -132 4 -142 9 -47 24
-101 43 -110 37 -6 -4 -8 3 -4 16 3 14 2 19 -6 14 -7 -4 -12 -13 -12 -21 0 -9
-7 -12 -22 -8 -13 3 -44 8 -70 10 -27 3 -48 9 -48 14 0 5 7 9 15 9 23 0 18 16
-9 28 -19 8 -26 8 -30 -1 -3 -9 -5 -9 -5 1 -1 6 -12 12 -25 12 -19 0 -27 8
-35 33 -6 18 -21 37 -33 42 -15 6 -23 19 -24 35 -1 33 -21 80 -33 80 -6 0 -11
21 -13 48 l-3 47 -53 -104 c-28 -57 -52 -97 -52 -87 0 9 -6 16 -14 16 -8 0
-22 3 -32 7 -12 4 -15 3 -10 -5 12 -20 -39 -14 -64 8 -13 11 -29 20 -37 20 -7
0 -12 3 -12 8 4 26 -2 32 -20 22 -12 -6 -22 -6 -26 -1 -3 5 -19 12 -35 16 -17
4 -27 11 -24 17 4 6 -5 8 -22 6 -26 -3 -29 0 -27 23 1 19 -5 30 -23 38 -14 6
-23 14 -21 19 3 4 -12 7 -33 6 -21 0 -49 5 -62 12 -22 13 -22 13 12 15 29 2
30 3 9 6 -15 2 -35 13 -45 24 -9 10 -25 19 -35 19 -10 0 -22 6 -26 14 -10 17
-32 22 -56 11 -10 -4 -21 -5 -24 -1 -4 3 1 6 10 6 12 0 17 9 17 30 0 31 0 31
-50 29 -27 -2 -52 -1 -54 2 -2 2 -15 27 -29 54 -14 28 -26 43 -27 34 0 -15
-19 -29 -39 -29 -4 0 -14 12 -21 28 -7 15 -15 22 -17 15 -3 -8 -10 -7 -24 5
-23 20 -25 32 -5 32 8 0 18 5 22 12 5 8 2 9 -9 5 -10 -3 -17 -3 -17 2 0 16
-41 20 -47 5 -7 -18 -43 -18 -43 0 0 22 -40 66 -61 66 -10 0 -19 7 -19 15 0
14 -22 20 -62 16 -10 -1 -18 4 -18 13 0 22 -17 28 -41 14 -18 -11 -23 -10 -36
10 -18 26 -41 27 -146 11 -77 -13 -101 -24 -93 -45 3 -8 0 -11 -9 -7 -8 3 -12
10 -8 16 3 6 1 7 -6 3 -6 -4 -9 -11 -6 -16 3 -5 1 -11 -3 -14 -5 -3 -8 -18 -6
-33 4 -24 3 -25 -5 -8 -7 14 -10 16 -11 5 -1 -8 -3 -22 -5 -30 -2 -8 -16 -60
-30 -115 -15 -55 -28 -111 -31 -125 -2 -14 -8 -45 -14 -70 -43 -212 -73 -471
-60 -525 13 -54 12 -105 -1 -105 -6 0 -9 6 -6 13 6 16 -26 15 -66 -1 -15 -7
-39 -15 -52 -18 -14 -3 -25 -10 -25 -15 0 -5 -11 -9 -24 -9 -13 0 -26 -6 -29
-12 -3 -10 -11 -9 -33 2 -31 17 -35 31 -54 175 -12 92 -12 324 0 450 26 282
82 499 187 725 64 140 76 161 112 192 21 19 31 33 23 36 -17 5 -15 37 3 52 8
7 15 16 15 21 0 20 122 202 193 286 43 51 102 118 132 148 16 17 35 37 42 46
10 13 -262 289 -1767 1794 l-1780 1780 0 -5303z m3590 654 c0 -3 -4 -8 -10
-11 -5 -3 -10 -1 -10 4 0 6 5 11 10 11 6 0 10 -2 10 -4z m800 -446 c0 -5 -8
-10 -17 -10 -15 0 -16 2 -3 10 19 12 20 12 20 0z m1328 -439 c-25 -4 -70 -4
-100 0 -42 5 -32 6 47 6 72 0 87 -2 53 -6z m-1035 -603 c25 -36 105 -118 186
-188 41 -36 85 -74 97 -85 44 -40 237 -196 307 -248 20 -16 49 -39 64 -53 14
-13 29 -24 33 -24 4 0 20 -11 36 -25 16 -14 48 -35 72 -46 25 -12 42 -28 42
-38 0 -38 -210 -408 -251 -443 -11 -9 -20 -21 -21 -25 -2 -14 -38 -68 -38 -58
0 6 7 22 16 35 l16 25 -22 -25 c-12 -14 -26 -25 -30 -25 -5 0 -11 -3 -15 -7
-4 -4 -14 -4 -23 -1 -11 5 -13 3 -7 -7 6 -10 4 -10 -10 -3 -13 8 -27 5 -52 -9
-23 -14 -42 -18 -60 -13 -39 9 -73 13 -202 20 -63 3 -122 10 -132 16 -10 5
-46 9 -81 9 -35 0 -97 7 -138 14 -85 16 -266 63 -292 77 -9 5 -24 9 -34 9 -26
0 -101 61 -115 93 -6 15 -15 27 -20 27 -5 0 -9 5 -9 12 0 6 -20 52 -45 102
-42 85 -107 252 -125 321 -4 17 -12 44 -18 60 -22 68 -31 114 -35 178 l-5 67
28 0 c27 0 93 17 175 46 23 8 48 14 58 14 9 0 25 4 35 9 9 5 44 16 77 26 33 9
69 21 80 26 11 4 103 36 204 69 102 34 194 68 205 76 27 19 31 18 49 -8z
m1643 -453 c-11 -8 -24 -15 -30 -15 -5 0 -1 7 10 15 10 8 24 14 29 14 6 0 1
-6 -9 -14z m-109 -51 c-3 -3 -12 -4 -19 -1 -8 3 -5 6 6 6 11 1 17 -2 13 -5z
m-137 -48 c0 -2 -9 -6 -20 -9 -11 -3 -18 -1 -14 4 5 9 34 13 34 5z m-893 -698
c-3 -8 -6 -5 -6 6 -1 11 2 17 5 13 3 -3 4 -12 1 -19z"/>
<path d="M4822 7268 c15 -46 23 -52 48 -35 17 12 18 15 5 20 -8 4 -15 1 -15
-6 0 -7 -10 3 -21 21 -12 17 -23 32 -24 32 -2 0 1 -15 7 -32z"/>
<path d="M5860 7042 c0 -9 43 -32 61 -32 11 0 39 25 39 35 0 3 -8 2 -17 -3
-20 -9 -55 -8 -72 2 -6 4 -11 3 -11 -2z"/>
<path d="M4205 6471 c-3 -6 -10 -9 -15 -6 -4 3 -10 -1 -13 -8 -2 -7 -19 -14
-37 -15 -18 -1 -38 -6 -44 -9 -17 -11 -35 -14 -98 -16 -31 -1 -52 -5 -46 -9 6
-3 -11 -9 -38 -13 -27 -3 -59 -10 -72 -16 -13 -5 -33 -9 -46 -9 -13 0 -26 -7
-30 -15 -3 -8 -11 -15 -18 -15 -9 0 -9 3 2 10 11 7 5 8 -20 4 -19 -4 -40 -11
-47 -16 -7 -5 -21 -7 -31 -4 -10 4 -36 -1 -57 -10 -21 -8 -46 -13 -57 -11 -10
3 -18 2 -18 -2 0 -4 -22 -14 -50 -21 -27 -7 -50 -17 -50 -22 0 -4 -14 -8 -31
-8 -17 0 -28 4 -24 10 3 6 2 10 -4 10 -5 0 -12 8 -14 18 -3 12 -5 11 -6 -6 -1
-31 -21 -18 -21 14 0 15 -6 24 -15 24 -8 0 -15 6 -15 14 0 7 -13 29 -30 47
-16 19 -30 28 -30 22 0 -7 -7 -13 -16 -13 -14 0 -15 -7 -10 -42 4 -24 11 -47
17 -52 5 -6 9 -18 9 -28 0 -10 4 -26 9 -36 6 -9 23 -46 39 -82 16 -36 40 -74
52 -85 21 -19 23 -19 35 -2 6 9 17 17 24 17 6 0 11 4 11 9 0 21 506 251 553
251 7 0 21 6 32 14 11 7 63 21 116 31 91 16 96 18 107 48 12 31 10 48 -3 28z"/>
<path d="M3192 6450 c0 -14 2 -19 5 -12 2 6 2 18 0 25 -3 6 -5 1 -5 -13z"/>
<path d="M5998 6075 c-3 -45 -3 -46 50 -78 29 -17 65 -42 80 -55 15 -13 43
-35 62 -50 19 -14 55 -44 80 -67 25 -22 79 -69 120 -105 41 -36 94 -83 119
-105 132 -116 242 -227 279 -282 37 -56 39 -56 97 -33 11 4 67 25 125 45 58
21 116 44 130 51 14 7 45 21 70 32 132 59 259 123 274 137 23 24 21 54 -4 48
-12 -3 -22 1 -26 10 -10 27 -44 8 -44 -24 0 -16 -4 -29 -10 -29 -5 0 -10 5
-10 12 0 9 -3 9 -11 1 -6 -6 -23 -8 -43 -3 -22 5 -39 3 -51 -6 -10 -8 -28 -14
-40 -14 -12 0 -25 -4 -30 -8 -6 -5 -43 -19 -83 -32 -41 -13 -76 -28 -78 -34
-3 -7 -19 -13 -36 -14 -18 -2 -35 -7 -38 -12 -3 -5 -26 -14 -51 -21 -40 -11
-51 -10 -87 7 -23 10 -42 24 -42 30 0 5 -19 14 -42 20 -27 6 -43 14 -43 24 0
15 -47 41 -68 37 -7 -1 -11 4 -10 11 2 6 -4 12 -13 12 -8 0 -13 4 -9 9 3 5 -3
12 -13 15 -10 3 -39 26 -66 51 -26 25 -52 42 -58 39 -6 -4 -8 -2 -5 3 4 6 -10
23 -31 39 -20 15 -53 43 -72 61 -19 18 -42 36 -52 39 -10 3 -18 9 -18 14 0 5
-15 17 -32 29 -18 11 -42 28 -53 38 -11 10 -38 30 -60 45 -53 35 -125 103
-125 118 0 6 -6 18 -14 25 -12 12 -15 8 -18 -30z"/>
<path d="M7500 5544 c0 -10 6 -14 14 -11 7 3 19 0 25 -6 6 -6 13 -8 17 -5 3 4
-8 14 -25 23 -29 14 -31 14 -31 -1z"/>
<path d="M7567 5523 c-13 -13 -19 -14 -31 -3 -24 19 -19 3 9 -34 24 -31 80
-219 90 -301 2 -16 9 -59 16 -95 6 -36 12 -134 13 -217 0 -84 4 -153 8 -153
31 0 83 171 70 228 -5 20 -10 55 -11 77 -4 92 -21 206 -37 241 -9 22 -16 54
-15 72 2 23 -1 32 -11 30 -7 -2 -12 3 -10 11 3 15 -35 99 -55 119 -7 7 -17 10
-23 7 -5 -3 -10 -2 -10 4 0 5 6 11 13 14 6 2 9 7 6 10 -3 4 -13 -1 -22 -10z"/>
<path d="M5128 5213 c7 -3 16 -2 19 1 4 3 -2 6 -13 5 -11 0 -14 -3 -6 -6z"/>
<path d="M5308 5153 c6 -2 18 -2 25 0 6 3 1 5 -13 5 -14 0 -19 -2 -12 -5z"/>
<path d="M6075 5080 c-3 -5 1 -10 10 -10 9 0 13 5 10 10 -3 6 -8 10 -10 10 -2
0 -7 -4 -10 -10z"/>
<path d="M6258 5053 c12 -2 32 -2 45 0 12 2 2 4 -23 4 -25 0 -35 -2 -22 -4z"/>
</g>
</svg>
