<?xml version="1.0" standalone="no"?>
<!DOCTYPE svg PUBLIC "-//W3C//DTD SVG 20010904//EN"
 "http://www.w3.org/TR/2001/REC-SVG-20010904/DTD/svg10.dtd">
<svg version="1.0" xmlns="http://www.w3.org/2000/svg"
 width="1024.000000pt" height="1024.000000pt" viewBox="0 0 1024.000000 1024.000000"
 preserveAspectRatio="xMidYMid meet">
<metadata>
Created by potrace 1.14, written by Peter Selinger 2001-2017
</metadata>
<g transform="translate(0.000000,1024.000000) scale(0.100000,-0.100000)"
fill="#000000" stroke="none">
<path d="M5025 8704 c-854 -151 -1084 -206 -1650 -401 -121 -41 -273 -97 -337
-124 -65 -27 -120 -49 -122 -49 -15 0 -471 -223 -601 -294 -346 -189 -451
-276 -518 -427 -31 -72 -47 -144 -47 -219 0 -117 96 -861 221 -1710 16 -113
50 -342 75 -510 24 -168 49 -339 55 -380 28 -201 143 -949 174 -1135 83 -484
118 -617 191 -714 52 -70 123 -135 176 -162 39 -20 271 -113 538 -215 91 -34
230 -88 310 -119 80 -31 260 -99 400 -151 140 -53 307 -115 370 -140 63 -24
185 -69 270 -100 85 -31 216 -78 290 -106 228 -84 329 -77 670 47 85 31 198
71 250 89 282 98 1270 480 1545 598 210 90 273 125 341 193 127 125 181 299
264 840 17 110 44 274 60 365 38 219 53 324 100 715 22 182 60 452 84 600 45
272 69 423 151 970 25 165 71 455 101 645 63 389 65 452 22 571 -26 70 -96
176 -145 220 -72 64 -178 127 -423 251 -157 79 -228 112 -500 231 -498 216
-936 359 -1510 491 -105 24 -709 146 -718 145 -4 -1 -43 -8 -87 -15z m245
-544 c196 -15 541 -76 645 -115 38 -15 35 -15 -80 -10 -66 3 -187 11 -270 16
-160 11 -891 15 -1096 5 -97 -4 -115 -3 -84 5 235 62 502 103 690 108 33 0
121 -4 195 -9z m25 -224 c169 -19 418 -60 517 -85 63 -16 77 -17 103 -5 16 7
75 32 130 55 118 49 123 49 355 -10 421 -108 882 -302 1232 -519 81 -50 176
-106 210 -123 35 -17 64 -32 66 -34 4 -4 -27 -218 -52 -350 -31 -162 -90 -551
-156 -1015 -51 -366 -102 -692 -164 -1053 -19 -114 -49 -314 -66 -445 -60
-459 -141 -1003 -161 -1082 -31 -121 -122 -231 -240 -290 -124 -63 -674 -291
-889 -368 -196 -71 -323 -118 -450 -167 -245 -95 -461 -166 -541 -178 -68 -10
-89 -8 -181 11 -183 38 -723 227 -1178 412 -124 50 -312 125 -419 166 -312
121 -405 175 -474 275 -71 105 -109 271 -157 699 -28 253 -53 424 -100 695
-58 329 -117 688 -140 845 -10 74 -28 196 -39 270 -18 126 -122 699 -155 855
-8 39 -35 205 -61 370 -25 165 -48 307 -50 315 -3 11 26 31 97 70 56 30 150
85 208 121 301 188 671 358 1005 460 207 64 409 100 685 123 25 2 243 2 485 1
318 -2 479 -8 580 -19z"/>
<path d="M4845 7800 c27 -12 259 -57 365 -70 589 -74 1019 -244 1395 -550 505
-411 796 -1053 795 -1755 -1 -259 -28 -425 -119 -725 -113 -374 -215 -592
-377 -813 -86 -116 -107 -141 -213 -252 -190 -198 -370 -337 -632 -488 -228
-131 -394 -197 -639 -253 -154 -35 -176 -38 -325 -38 -143 0 -175 3 -305 32
-234 52 -402 114 -615 229 -259 140 -414 254 -630 462 -195 187 -326 363 -444
594 -253 498 -369 1060 -317 1542 17 163 66 380 115 514 221 596 712 1100
1306 1339 86 35 358 101 421 103 22 1 53 5 69 9 56 14 -58 11 -305 -10 -412
-34 -659 -88 -1065 -235 -196 -70 -387 -165 -590 -293 -156 -99 -196 -173
-160 -299 18 -61 145 -401 193 -519 28 -65 51 -145 39 -134 -16 16 -119 175
-143 221 l-29 54 -6 -35 c-4 -19 -14 -61 -22 -92 -50 -182 -66 -588 -34 -838
21 -158 79 -511 108 -655 45 -225 123 -482 244 -805 105 -280 174 -483 206
-603 26 -98 38 -127 51 -127 39 0 369 -128 543 -211 530 -251 873 -375 1214
-439 87 -17 132 -20 190 -15 207 18 575 115 834 219 147 60 189 78 397 178
207 100 483 226 564 258 l69 28 19 73 c29 117 66 223 131 379 187 451 319 916
392 1385 14 93 33 204 41 246 23 123 34 354 23 492 -14 176 -47 444 -62 500
l-13 48 -13 -28 c-20 -45 -142 -226 -147 -220 -3 3 17 63 45 134 45 114 75
196 157 425 51 140 52 220 4 281 -42 53 -258 189 -430 270 -171 81 -255 116
-413 172 -229 80 -339 110 -567 154 -197 37 -262 49 -505 91 -60 10 -202 26
-315 35 -113 9 -269 22 -348 30 -160 17 -175 17 -147 5z"/>
<path d="M4865 7549 c-138 -15 -356 -59 -450 -91 -276 -94 -637 -319 -826
-515 -333 -343 -541 -764 -600 -1210 -17 -135 -6 -526 19 -663 54 -287 161
-592 284 -807 64 -111 181 -267 267 -356 394 -407 1103 -672 1678 -628 316 24
547 85 814 216 432 210 764 558 953 998 79 185 153 438 178 612 17 119 16 483
-1 605 -16 116 -70 339 -106 440 -71 197 -185 409 -308 572 -205 272 -603 563
-948 691 -326 122 -649 168 -954 136z m490 -219 c167 -24 255 -47 393 -102
331 -131 602 -328 832 -603 164 -195 236 -324 320 -570 26 -75 30 -111 9 -73
-5 9 -39 57 -76 105 -37 48 -107 152 -157 229 -50 78 -95 148 -101 157 -21 33
-332 158 -512 207 l-80 21 -53 77 c-101 146 -147 217 -168 258 l-21 41 -133
31 c-73 18 -162 36 -198 42 -87 13 -364 13 -451 -1 -69 -11 -71 -10 -110 18
-41 29 -178 113 -185 113 -15 0 17 -34 69 -73 34 -25 82 -66 106 -91 l44 -45
-22 -159 c-13 -88 -20 -176 -17 -196 4 -23 2 -36 -5 -36 -21 0 -254 -117 -379
-190 -69 -40 -150 -87 -181 -104 l-56 -30 -114 22 c-130 25 -364 46 -414 36
-46 -8 -50 7 -19 67 33 66 128 283 161 372 30 78 46 93 207 192 185 113 307
168 551 249 143 47 191 53 425 55 146 0 230 -4 335 -19z m-1538 -467 c-10 -18
-67 -145 -67 -150 0 -9 -92 -213 -112 -251 -10 -18 -18 -44 -18 -59 0 -18 -13
-37 -44 -65 -50 -44 -78 -95 -130 -247 -40 -114 -86 -324 -86 -390 0 -31 -9
-53 -34 -88 -59 -82 -100 -204 -111 -328 -3 -38 -9 -88 -12 -110 l-7 -40 -7
30 c-20 89 8 526 47 724 53 268 183 528 392 787 74 92 173 194 187 194 3 0 4
-3 2 -7z m1143 -233 c90 -35 421 -160 542 -204 61 -21 88 -36 88 -47 0 -9 9
-45 21 -80 34 -108 85 -289 109 -388 l23 -95 -24 -15 c-13 -9 -133 -94 -267
-190 l-244 -174 7 -221 c4 -121 13 -291 20 -376 12 -148 12 -156 -6 -172 -18
-16 -594 -248 -615 -248 -6 0 -87 51 -180 113 -149 99 -450 264 -510 279 -17
4 -25 20 -38 80 -24 106 -46 308 -46 413 1 86 2 92 32 125 16 19 85 100 152
180 66 80 143 168 170 195 l49 50 6 240 6 239 125 69 c69 38 170 93 225 122
55 29 134 71 175 94 41 22 82 41 90 41 8 0 49 -13 90 -30z m1255 -29 c77 -26
184 -65 237 -86 l97 -39 49 -105 c124 -263 154 -415 156 -791 l1 -254 -73 -27
c-85 -32 -301 -94 -305 -88 -1 2 -14 29 -29 60 -61 129 -268 341 -460 470
l-113 75 -21 95 c-28 124 -68 267 -104 375 -17 48 -30 95 -30 103 0 9 45 45
101 81 56 36 135 93 178 128 75 62 76 62 126 56 28 -3 113 -27 190 -53z
m-2740 -1035 c54 -26 140 -71 191 -101 50 -30 103 -57 118 -61 20 -5 25 -11
21 -25 -8 -23 20 -327 40 -440 25 -139 25 -136 -71 -261 -130 -170 -127 -157
-77 -313 72 -223 220 -403 408 -495 109 -54 176 -69 343 -77 143 -6 144 -6
154 -32 5 -14 16 -38 23 -53 13 -26 13 -28 -11 -34 -20 -5 33 -26 223 -90 136
-45 271 -93 298 -106 l50 -23 -70 -3 c-169 -7 -457 50 -688 137 -199 74 -429
215 -627 381 -258 218 -443 500 -543 830 -46 153 -58 221 -47 281 5 30 17 114
25 188 9 74 24 157 34 185 19 55 88 169 99 164 4 -2 52 -25 107 -52z m3275
-284 c0 -5 18 -39 41 -76 22 -37 66 -117 98 -177 l58 -109 -28 -102 c-41 -156
-65 -221 -135 -363 -83 -169 -183 -302 -383 -507 l-159 -163 -24 22 c-13 12
-83 51 -156 86 l-134 64 1 283 c1 282 1 283 23 299 30 20 118 102 182 170 118
124 206 268 243 401 l16 58 126 42 c69 24 144 51 166 61 44 20 65 23 65 11z
m-1397 -656 c29 -8 162 -36 297 -62 l245 -47 -1 -236 c0 -130 -2 -257 -2 -283
l-2 -47 -117 -85 c-65 -47 -170 -122 -233 -168 -135 -96 -272 -201 -289 -222
-11 -14 -19 -12 -62 9 -27 14 -143 56 -258 94 -244 81 -288 101 -297 136 -3
14 -3 72 0 128 18 295 18 352 2 437 -9 46 -12 88 -8 92 5 5 69 30 143 57 171
63 323 127 424 179 44 23 86 39 93 37 7 -3 36 -11 65 -19z"/>
<path d="M27 103 c-25 -4 -27 -8 -27 -54 0 -48 1 -49 30 -49 30 0 30 1 30 55
0 30 -1 54 -2 54 -2 -1 -15 -4 -31 -6z"/>
</g>
</svg>
